<svg width="37" height="32" viewBox="0 0 37 32" fill="none" xmlns="http://www.w3.org/2000/svg">
<path d="M35.3077 7.75519C34.9042 6.27706 33.7155 5.11294 32.2061 4.71788C29.4703 4 18.5 4 18.5 4C18.5 4 7.52975 4 4.79387 4.71788C3.28451 5.113 2.09576 6.27706 1.69229 7.75519C0.959229 10.4344 0.959229 16.0243 0.959229 16.0243C0.959229 16.0243 0.959229 21.6141 1.69229 24.2933C2.09576 25.7714 3.28451 26.8871 4.79387 27.2821C7.52975 28 18.5 28 18.5 28C18.5 28 29.4702 28 32.2061 27.2821C33.7155 26.8871 34.9042 25.7714 35.3077 24.2933C36.0408 21.6141 36.0408 16.0243 36.0408 16.0243C36.0408 16.0243 36.0408 10.4344 35.3077 7.75519ZM14.9121 21.0994V10.9491L24.0811 16.0244L14.9121 21.0994Z" fill="black"/>
</svg>
